# xmcd CD Database Entry
#
# Track frame offsets:
# 150
# 12120
# 38139
# 51644
# 63102
# 88647
# 99437
# 119995
# 140495
# 157526
# 174840
# 187033
# 205492
# 229258
# 242812
# 265900
# 283638
# 306457
# 325895
#
# Disc length: 4470 seconds
#
# Revision: 2
# Processed by: cddbd v1.4PL0 Copyright (c) Steve Scherf et al.
# Submitted via: tcd 2.0b
#
DISCID=12117413
DTITLE=Adriano Celentano - il cuore, la voce
DYEAR=1900
DGENRE=
TTITLE0=vivro' per lei
TTITLE1=solo per un quarto d'ora
TTITLE2=e voi ballate
TTITLE3=stai lontana da me
TTITLE4=letto di foglie
TTITLE5=sei rimasta sola
TTITLE6=una storia come questa
TTITLE7=l'emozione non ha voce
TTITLE8=manifesto
TTITLE9=viola
TTITLE10=l'ascensore
TTITLE11=soli
TTITLE12=storia d'amore
TTITLE13=una carezza in un pugno
TTITLE14=amore no
TTITLE15=lirica d'inverno
TTITLE16=torno a settembre
TTITLE17=stivali e colbacco
TTITLE18=nessuno mi puo' giudicare
EXTD=
EXTT0=\n
EXTT1=
EXTT2=
EXTT3=
EXTT4=
EXTT5=
EXTT6=
EXTT7=
EXTT8=
EXTT9=
EXTT10=
EXTT11=
EXTT12=
EXTT13=
EXTT14=
EXTT15=
EXTT16=
EXTT17=
EXTT18=bonus track\n
PLAYORDER=
